HIERARCHY
ROOT joint_Root
{
	OFFSET 0.0 0.0 0.0
	CHANNELS 6 Xposition Yposition Zposition Zrotation Xrotation Yrotation 
	JOINT Hips
	{
		OFFSET 4.5925 91.4895 -427.239
		CHANNELS 6 Xposition Yposition Zposition Zrotation Xrotation Yrotation 
		JOINT Spine
		{
			OFFSET 15.7357 0.0 0.0
			CHANNELS 6 Xposition Yposition Zposition Zrotation Xrotation Yrotation 
			JOINT Chest
			{
				OFFSET 8.98455 -0.406207 0.0
				CHANNELS 6 Xposition Yposition Zposition Zrotation Xrotation Yrotation 
				JOINT Neck
				{
					OFFSET 16.3773 0.0 0.0
					CHANNELS 6 Xposition Yposition Zposition Zrotation Xrotation Yrotation 
					JOINT Head
					{
						OFFSET 6.45672 0.0 0.0
						CHANNELS 6 Xposition Yposition Zposition Zrotation Xrotation Yrotation 
						End Site
						{
							OFFSET 0.0 0.0 0.0
						}
					}
				}
				JOINT Shoulder_L
				{
					OFFSET 12.9942 -0.242716 4.98039
					CHANNELS 6 Xposition Yposition Zposition Zrotation Xrotation Yrotation 
					JOINT UpperArm_L
					{
						OFFSET 5.34809 0.0 0.0
						CHANNELS 6 Xposition Yposition Zposition Zrotation Xrotation Yrotation 
						JOINT LowerArm_L
						{
							OFFSET 24.3286 1.87007e-05 0.0
							CHANNELS 6 Xposition Yposition Zposition Zrotation Xrotation Yrotation 
							JOINT Hand_L
							{
								OFFSET 22.2916 0.0 0.0
								CHANNELS 6 Xposition Yposition Zposition Zrotation Xrotation Yrotation 
								End Site
								{
									OFFSET 0.0 0.0 0.0
								}
							}
						}
					}
				}
				JOINT Shoulder_R
				{
					OFFSET 12.9945 -0.242716 -4.98039
					CHANNELS 6 Xposition Yposition Zposition Zrotation Xrotation Yrotation 
					JOINT UpperArm_R
					{
						OFFSET -5.34813 0.0 0.0
						CHANNELS 6 Xposition Yposition Zposition Zrotation Xrotation Yrotation 
						JOINT LowerArm_R
						{
							OFFSET -24.3289 0.000322201 0.0
							CHANNELS 6 Xposition Yposition Zposition Zrotation Xrotation Yrotation 
							JOINT Hand_R
							{
								OFFSET -22.2915 -0.000108084 0.0
								CHANNELS 6 Xposition Yposition Zposition Zrotation Xrotation Yrotation 
								End Site
								{
									OFFSET 0.0 0.0 0.0
								}
							}
						}
					}
				}
			}
		}
		JOINT UpperLeg_L
		{
			OFFSET -2.19248 -6.46944 0.0
			CHANNELS 6 Xposition Yposition Zposition Zrotation Xrotation Yrotation 
			JOINT LowerLeg_L
			{
				OFFSET 39.0811 0.0 -1.23785e-05
				CHANNELS 6 Xposition Yposition Zposition Zrotation Xrotation Yrotation 
				JOINT Foot_L
				{
					OFFSET 40.9854 0.0 -1.26872e-05
					CHANNELS 6 Xposition Yposition Zposition Zrotation Xrotation Yrotation 
					JOINT Toes_L
					{
						OFFSET 11.7543 0.0 0.0
						CHANNELS 6 Xposition Yposition Zposition Zrotation Xrotation Yrotation 
						End Site
						{
							OFFSET 0.0 0.0 0.0
						}
					}
				}
			}
		}
		JOINT UpperLeg_R
		{
			OFFSET -2.19251 6.46944 0.0
			CHANNELS 6 Xposition Yposition Zposition Zrotation Xrotation Yrotation 
			JOINT LowerLeg_R
			{
				OFFSET -39.0811 -0.00228153 -0.0401928
				CHANNELS 6 Xposition Yposition Zposition Zrotation Xrotation Yrotation 
				JOINT Foot_R
				{
					OFFSET -40.9854 0.0 0.0
					CHANNELS 6 Xposition Yposition Zposition Zrotation Xrotation Yrotation 
					JOINT Toes_R
					{
						OFFSET -11.7543 0.0 0.0
						CHANNELS 6 Xposition Yposition Zposition Zrotation Xrotation Yrotation 
						End Site
						{
							OFFSET 0.0 0.0 0.0
						}
					}
				}
			}
		}
	}
}
MOTION
Frames:	4
Frame Time:	0.0333333
0.000000 0.000000 0.000000 0.000000 0.000000 -0.000000 0.978879 85.528500 -0.253949 90.782400 -0.405123 10.883900 15.735700 0.000005 -0.000001 104.512000 80.294100 -104.509000 8.984550 -0.406207 -0.000000 11.054800 4.827770 -0.461572 16.377300 -0.000001 -0.000001 -2.055950 -6.426110 1.232990 6.456720 -0.000001 -0.000000 -2.722700 -11.317600 3.811700 12.994200 -0.242716 4.980390 -92.813100 7.494920 -69.357800 5.348090 -0.000007 -0.000001 -72.978200 24.653700 -3.945030 24.328600 0.000019 0.000005 3.178730 6.610600 -25.820300 22.291600 -0.000001 0.000005 16.086100 5.205260 2.596870 12.994500 -0.242716 -4.980390 88.864200 8.328180 -82.205400 -5.348130 -0.000001 -0.000004 -63.051200 26.601600 -6.424560 -24.328900 0.000322 -0.000009 -0.016642 -0.039594 -20.532600 -22.291500 -0.000108 -0.000004 16.565300 5.428500 -3.886640 -2.192480 -6.469440 -0.000000 -177.483000 -7.598860 -9.770110 39.081100 -0.000007 -0.000012 -0.509212 0.403481 51.609200 40.985400 -0.000006 -0.000013 0.479035 2.040820 -81.082600 11.754300 -0.000000 0.000003 -0.000235 -0.002118 -16.657100 -2.192510 6.469440 -0.000001 173.913000 13.062600 170.182000 -39.081100 -0.002282 -0.040193 0.071777 -0.051022 53.336600 -40.985400 0.000008 0.000006 5.164070 4.296300 -80.699400 -11.754300 -0.000006 -0.000006 -1.294410 -1.589270 -17.698400
0.000000 0.000000 0.000000 0.000000 0.000000 -0.000000 2.307470 87.010000 0.410271 91.656300 -4.374180 9.987300 15.735700 0.000005 -0.000001 107.467000 81.419300 -106.404000 8.984550 -0.406207 -0.000000 8.582670 5.133730 1.739310 16.377300 -0.000001 -0.000001 -0.883644 -5.517740 1.577060 6.456720 -0.000001 -0.000000 -1.009470 -9.211890 1.243440 12.994200 -0.242716 4.980390 -92.492400 6.493970 -68.949500 5.348090 -0.000007 -0.000001 -75.244100 20.190400 2.060250 24.328600 0.000019 0.000005 6.044910 15.375200 -21.773500 22.291600 -0.000001 0.000005 10.302700 5.246660 1.474840 12.994500 -0.242716 -4.980390 88.935000 7.238220 -81.605800 -5.348130 -0.000001 -0.000004 -63.015800 23.963000 -7.896350 -24.328900 0.000322 -0.000009 0.473431 1.634400 -16.204200 -22.291500 -0.000108 -0.000004 16.311700 5.390630 -2.634650 -2.192480 -6.469440 -0.000000 -178.978000 -10.854100 -6.966990 39.081100 -0.000007 -0.000012 -0.417254 0.405466 45.821800 40.985400 -0.000006 -0.000013 0.853077 0.828274 -79.095700 11.754300 -0.000000 0.000003 -0.000224 -0.002036 -16.654100 -2.192510 6.469440 -0.000001 172.610000 10.434500 170.988000 -39.081100 -0.002282 -0.040193 0.048407 -0.039369 48.916200 -40.985400 0.000008 0.000006 4.665720 6.369120 -77.811400 -11.754300 -0.000006 -0.000006 -1.416790 -1.723870 -18.182400
0.000000 0.000000 0.000000 0.000000 0.000000 -0.000000 3.222640 88.408700 0.751684 91.910600 -7.260780 8.286340 15.735700 0.000005 -0.000001 108.697000 82.731100 -106.420000 8.984550 -0.406207 -0.000000 5.931780 4.611410 4.311250 16.377300 -0.000001 -0.000001 0.632390 -4.421890 1.685790 6.456720 -0.000001 -0.000000 -0.533549 -7.379580 -1.252960 12.994200 -0.242716 4.980390 -92.220200 5.362250 -67.465800 5.348090 -0.000007 -0.000001 -69.128200 19.119100 2.352410 24.328600 0.000019 0.000005 9.231820 21.361700 -24.046700 22.291600 -0.000001 0.000005 7.037340 5.304230 -0.047470 12.994500 -0.242716 -4.980390 88.921700 6.405220 -80.422400 -5.348130 -0.000001 -0.000004 -62.928200 20.963000 -8.901480 -24.328900 0.000322 -0.000009 0.605270 2.233140 -15.197100 -22.291500 -0.000108 -0.000004 16.219700 5.370270 -1.995180 -2.192480 -6.469440 -0.000000 -179.809000 -13.714100 -5.434470 39.081100 -0.000007 -0.000012 -0.303562 0.361565 40.016700 40.985400 -0.000006 -0.000013 1.318750 0.596197 -76.692000 11.754300 -0.000000 0.000003 -0.000179 -0.001687 -16.641400 -2.192510 6.469440 -0.000001 172.228000 8.937660 171.093000 -39.081100 -0.002282 -0.040193 0.032100 -0.029744 44.108700 -40.985400 0.000008 0.000006 4.207870 8.047150 -74.782700 -11.754300 -0.000006 -0.000006 -1.438560 -1.735240 -18.564400
0.000000 0.000000 0.000000 0.000000 0.000000 -0.000000 3.614180 89.369600 0.827266 92.143400 -8.217210 6.980830 15.735700 0.000005 -0.000001 108.755000 83.832400 -105.404000 8.984550 -0.406207 -0.000000 3.817730 3.845270 6.567330 16.377300 -0.000001 -0.000001 2.443630 -3.922760 1.390820 6.456720 -0.000001 -0.000000 -0.681022 -6.473850 -2.956540 12.994200 -0.242716 4.980390 -91.653900 3.766200 -66.271200 5.348090 -0.000007 -0.000001 -58.798700 8.049500 -2.610120 24.328600 0.000019 0.000005 9.784290 18.583000 -28.429900 22.291600 -0.000001 0.000005 8.255990 5.267570 0.951321 12.994500 -0.242716 -4.980390 88.736900 6.319880 -78.674400 -5.348130 -0.000001 -0.000004 -61.890900 18.589300 -8.478600 -24.328900 0.000322 -0.000009 0.085102 0.276452 -17.538400 -22.291500 -0.000108 -0.000004 15.102700 5.389150 -2.592100 -2.192480 -6.469440 -0.000000 179.587000 -15.040200 -4.534700 39.081100 -0.000007 -0.000012 -0.236837 0.330665 35.612400 40.985400 -0.000006 -0.000013 1.654460 1.057280 -74.617600 11.754300 -0.000000 0.000003 -0.000122 -0.001223 -16.624300 -2.192510 6.469440 -0.000001 172.075000 8.698160 171.784000 -39.081100 -0.002282 -0.040193 0.030669 -0.032819 39.848200 -40.985400 0.000008 0.000006 4.140170 8.362190 -73.559900 -11.754300 -0.000006 -0.000006 -0.842666 -1.023210 -18.124300
